<svg xmlns="http://www.w3.org/2000/svg" viewBox="0 0 800 420" width="800" height="420">
  <defs>
    <linearGradient id="bg" x1="0%" y1="0%" x2="100%" y2="100%">
      <stop offset="0%" style="stop-color:#f59e0b;stop-opacity:1" />
      <stop offset="100%" style="stop-color:#d97706;stop-opacity:1" />
    </linearGradient>
    <linearGradient id="card" x1="0%" y1="0%" x2="0%" y2="100%">
      <stop offset="0%" style="stop-color:#ffffff;stop-opacity:0.15" />
      <stop offset="100%" style="stop-color:#ffffff;stop-opacity:0.05" />
    </linearGradient>
  </defs>
  <rect width="800" height="420" fill="url(#bg)"/>
  <!-- decorative circles -->
  <circle cx="680" cy="80" r="120" fill="white" fill-opacity="0.08"/>
  <circle cx="120" cy="360" r="90" fill="white" fill-opacity="0.06"/>
  <!-- tent shapes -->
  <polygon points="80,280 180,180 280,280" fill="white" fill-opacity="0.18"/>
  <rect x="80" y="280" width="200" height="80" rx="4" fill="white" fill-opacity="0.12"/>
  <polygon points="280,280 380,180 480,280" fill="white" fill-opacity="0.14"/>
  <rect x="280" y="280" width="200" height="80" rx="4" fill="white" fill-opacity="0.10"/>
  <polygon points="480,280 580,180 680,280" fill="white" fill-opacity="0.18"/>
  <rect x="480" y="280" width="200" height="80" rx="4" fill="white" fill-opacity="0.12"/>
  <!-- flags -->
  <rect x="125" y="150" width="4" height="56" fill="white" fill-opacity="0.6"/>
  <polygon points="129,150 155,160 129,170" fill="#ef4444" fill-opacity="0.9"/>
  <rect x="325" y="150" width="4" height="56" fill="white" fill-opacity="0.6"/>
  <polygon points="329,150 355,160 329,170" fill="#3b82f6" fill-opacity="0.9"/>
  <rect x="525" y="150" width="4" height="56" fill="white" fill-opacity="0.6"/>
  <polygon points="529,150 555,160 529,170" fill="#10b981" fill-opacity="0.9"/>
  <!-- text -->
  <text x="400" y="80" font-family="system-ui, sans-serif" font-size="32" font-weight="700" fill="white" text-anchor="middle">Ярмарок підприємців</text>
  <text x="400" y="118" font-family="system-ui, sans-serif" font-size="22" fill="white" fill-opacity="0.85" text-anchor="middle">Сумщини — 2026</text>
  <rect x="280" y="135" width="240" height="3" rx="2" fill="white" fill-opacity="0.4"/>
  <text x="400" y="390" font-family="system-ui, sans-serif" font-size="16" fill="white" fill-opacity="0.7" text-anchor="middle">15 травня 2026 · Суми</text>
</svg>
